<?xml version="1.0" standalone="no"?>
<!DOCTYPE svg PUBLIC "-//W3C//DTD SVG 20010904//EN"
 "http://www.w3.org/TR/2001/REC-SVG-20010904/DTD/svg10.dtd">
<svg version="1.0" xmlns="http://www.w3.org/2000/svg"
 width="417.000000pt" height="413.000000pt" viewBox="0 0 417.000000 413.000000"
 preserveAspectRatio="xMidYMid meet">

<g transform="translate(0.000000,413.000000) scale(0.100000,-0.100000)"
fill="#000000" stroke="none">
<path d="M2040 3791 c-25 -15 -243 -144 -485 -286 -242 -142 -552 -324 -690
-405 -137 -81 -265 -155 -283 -166 l-33 -19 3 -105 3 -105 76 1 c64 1 85 6
129 30 60 33 74 49 166 199 82 135 171 253 221 294 72 59 150 35 239 -75 22
-26 50 -60 64 -76 l25 -29 65 42 c61 39 154 127 297 280 100 106 285 280 327
306 21 14 59 28 85 32 l45 6 -94 53 c-51 28 -98 52 -104 52 -6 0 -31 -13 -56
-29z"/>
<path d="M2356 3669 c12 -13 32 -44 44 -69 48 -95 158 -248 235 -326 90 -91
170 -137 272 -156 l63 -11 31 -61 c51 -98 146 -233 229 -325 103 -115 220
-194 343 -232 141 -45 127 -66 127 201 l0 229 -67 37 c-38 21 -124 70 -193
110 -132 76 -153 88 -293 166 -125 69 -742 419 -787 446 l-25 15 21 -24z"/>
<path d="M1965 3071 c-33 -9 -69 -21 -80 -26 -11 -5 -63 -23 -115 -40 l-95
-31 -3 -85 c-3 -82 -4 -87 -36 -118 l-33 -32 -6 167 c-4 92 -8 169 -11 171 -2
3 -16 -3 -30 -12 -20 -14 -26 -26 -28 -68 l-3 -51 -61 -16 c-55 -13 -66 -21
-103 -67 -44 -56 -75 -68 -86 -33 -3 11 -13 20 -21 20 -10 0 -14 9 -12 28 2
22 -1 27 -18 26 -16 0 -20 5 -16 22 2 12 -1 30 -7 41 -9 15 -10 12 -11 -18 0
-29 -5 -38 -21 -42 -15 -4 -19 -11 -14 -26 3 -12 0 -23 -8 -28 -7 -4 -16 -16
-20 -25 -3 -10 -14 -18 -24 -18 -15 0 -15 -2 3 -14 23 -17 24 -16 -51 -55 -33
-17 -48 -28 -33 -25 21 5 26 2 25 -13 -2 -19 0 -19 46 -8 20 6 28 3 34 -11 4
-12 -3 -25 -28 -46 -19 -16 -41 -35 -50 -43 -9 -8 -32 -15 -52 -15 -46 0 -48
-14 -4 -30 31 -11 31 -12 13 -26 -19 -14 -19 -14 5 -15 46 -3 64 -1 82 6 25
10 22 -20 -4 -46 -16 -16 -31 -20 -65 -17 -29 2 -45 -1 -49 -9 -2 -7 -20 -13
-40 -13 -35 0 -46 -12 -23 -26 7 -5 5 -11 -7 -21 -11 -7 -14 -13 -8 -13 7 0
11 -12 10 -27 -2 -20 -8 -29 -23 -31 -17 -2 -21 2 -22 25 0 67 -9 70 -35 13
-10 -22 -23 -40 -28 -40 -4 0 -6 6 -3 14 6 15 -26 32 -35 18 -3 -5 -16 -12
-27 -16 -23 -7 -33 14 -40 77 -3 38 -14 48 -14 14 0 -15 -5 -27 -11 -27 -5 0
-7 -5 -4 -10 11 -18 16 -60 6 -60 -5 0 -11 -9 -14 -20 -8 -31 -21 -24 -41 20
-18 42 -35 52 -37 23 -1 -10 -3 -34 -4 -53 -2 -19 -4 -38 -4 -42 -1 -5 -8 -8
-17 -8 -8 0 -13 -4 -10 -9 9 -13 -4 -41 -18 -41 -7 0 -13 -7 -13 -15 0 -9 10
-15 24 -15 14 0 21 -4 18 -10 -3 -5 -15 -10 -26 -10 -33 0 -16 -24 22 -31 l34
-5 -27 -14 c-20 -9 -25 -16 -18 -25 8 -9 6 -14 -6 -19 -12 -5 -14 -9 -5 -20 6
-7 8 -16 4 -19 -3 -4 92 -7 213 -7 388 -1 429 -3 429 -20 0 -10 12 -16 37 -18
36 -3 37 -2 40 35 2 28 7 37 18 34 8 -2 31 -4 50 -6 19 -1 46 -6 60 -10 25 -8
25 -8 6 14 -24 26 -6 29 48 6 36 -15 68 -8 87 19 4 5 49 7 101 4 l95 -5 6 144
c4 79 4 186 0 239 l-6 95 -36 -5 c-83 -12 -276 -17 -261 -7 12 9 11 11 -7 11
-13 0 -23 5 -23 10 0 6 6 10 13 10 7 0 22 9 34 19 15 14 49 23 128 33 l108 13
168 220 c152 199 195 257 187 254 -2 -1 -30 -9 -63 -18z m-665 -286 c0 -8 -4
-15 -10 -15 -5 0 -10 7 -10 15 0 8 5 15 10 15 6 0 10 -7 10 -15z m16 -123 c4
-18 2 -32 -3 -32 -16 0 -36 47 -29 66 9 23 24 7 32 -34z m14 -153 c0 -5 -10
-9 -21 -9 -18 0 -19 2 -9 15 12 15 30 12 30 -6z m-370 -171 c0 -4 -6 -5 -14
-2 -8 3 -12 12 -9 21 5 12 7 12 14 1 5 -7 9 -16 9 -20z m-220 -43 c0 -8 -4
-15 -10 -15 -5 0 -10 7 -10 15 0 8 5 15 10 15 6 0 10 -7 10 -15z"/>
<path d="M2042 2977 c-10 -11 11 -62 98 -241 89 -183 110 -236 110 -271 0 -24
3 -46 8 -48 4 -2 71 1 150 8 98 8 147 16 156 26 16 16 191 272 207 301 6 11 9
21 7 23 -2 3 -27 -2 -56 -9 -28 -8 -74 -17 -102 -21 l-50 -7 0 -62 c0 -56 -3
-65 -30 -91 l-30 -29 0 127 c0 70 -3 127 -7 127 -23 -1 -34 -20 -31 -56 l3
-39 -107 -16 c-60 -8 -111 -18 -114 -21 -3 -3 16 -45 41 -92 47 -86 51 -116
18 -116 -14 0 -39 44 -103 183 -163 354 -156 339 -168 324z"/>
<path d="M1946 2714 c-36 -87 -63 -161 -59 -165 8 -7 286 -39 292 -34 1 2 -9
30 -24 62 -15 32 -50 108 -78 168 -28 61 -54 114 -57 118 -4 5 -37 -63 -74
-149z"/>
<path d="M3485 2429 c5 -14 1 -19 -12 -19 -17 -1 -17 -1 1 -15 17 -13 17 -15
3 -21 -10 -3 -17 -12 -17 -20 0 -8 -7 -14 -16 -14 -9 0 -14 6 -11 13 6 17 -9
44 -19 34 -4 -4 -7 -20 -7 -37 0 -31 -25 -49 -39 -28 -4 7 -8 25 -8 40 0 38
-17 44 -25 8 -7 -31 -23 -37 -56 -20 -12 7 -19 7 -19 1 0 -10 -41 -27 -50 -20
-3 2 -4 8 -2 13 1 4 -2 14 -8 21 -6 7 -7 15 -2 17 5 1 3 17 -4 33 -11 26 -13
27 -14 8 0 -13 -5 -23 -11 -23 -7 0 -8 -7 -4 -17 12 -30 13 -48 2 -54 -5 -4
-10 -21 -11 -38 0 -17 -2 -31 -3 -31 -1 0 -14 23 -29 50 -31 58 -47 54 -50
-12 -1 -23 -8 -46 -16 -52 -15 -11 -18 -17 -18 -36 0 -5 -7 -10 -15 -10 -21 0
-7 -28 18 -37 19 -6 18 -8 -12 -13 -32 -5 -34 -6 -18 -22 10 -9 25 -14 37 -11
27 7 26 -12 -2 -31 -15 -11 -18 -16 -8 -16 10 -1 8 -7 -9 -20 -19 -17 -20 -20
-6 -20 14 0 15 -3 5 -15 -11 -13 28 -15 343 -15 226 0 358 4 362 10 3 6 -1 10
-10 10 -12 0 -15 5 -11 16 4 10 -1 22 -11 30 -15 11 -15 15 -4 23 11 7 11 10
0 17 -10 6 -2 11 26 14 l40 5 0 60 c0 33 -4 70 -9 81 -9 20 -12 20 -22 5 -9
-12 -9 -18 -1 -23 8 -5 6 -8 -5 -8 -9 0 -19 -6 -21 -12 -3 -7 -6 -4 -6 8 -1
11 -6 25 -13 32 -9 9 -9 12 0 12 21 0 13 17 -10 24 -22 7 -22 7 -3 16 19 9 19
9 -3 16 -14 4 -21 12 -18 20 3 8 0 14 -7 14 -9 0 -8 3 1 9 11 6 10 10 -4 15
-23 9 -33 -9 -29 -51 1 -18 -2 -36 -6 -39 -12 -7 -83 28 -71 35 18 12 9 41
-12 41 -21 1 -21 1 -2 15 17 13 17 15 3 15 -10 0 -14 5 -11 14 3 8 -3 16 -16
19 -17 4 -20 2 -15 -14z m-245 -135 c0 -8 -4 -12 -10 -9 -5 3 -10 10 -10 16 0
5 5 9 10 9 6 0 10 -7 10 -16z m373 -25 c-6 -6 -17 -8 -24 -3 -9 5 -8 9 7 14
23 9 31 3 17 -11z m22 -59 c3 -5 1 -10 -4 -10 -6 0 -11 5 -11 10 0 6 2 10 4
10 3 0 8 -4 11 -10z m85 -14 c0 -11 -19 -15 -25 -6 -3 5 1 10 9 10 9 0 16 -2
16 -4z"/>
<path d="M1870 2320 l0 -120 25 0 25 0 0 120 0 120 -25 0 -25 0 0 -120z"/>
<path d="M1980 2242 l0 -190 31 -4 c18 -3 33 0 35 6 3 7 3 93 2 191 l-3 180
-32 3 -33 3 0 -189z"/>
<path d="M2107 2404 c-4 -4 -7 -54 -7 -111 l0 -103 25 0 26 0 -3 107 c-2 88
-6 108 -18 111 -9 1 -19 0 -23 -4z"/>
<path d="M2555 2400 c-11 -4 -74 -10 -140 -14 -66 -4 -132 -9 -147 -12 l-28
-6 0 -92 0 -93 92 -7 c50 -3 117 -6 149 -6 l58 0 3 -62 c2 -35 8 -63 15 -65
13 -5 26 161 21 283 -3 77 -4 81 -23 74z"/>
<path d="M1700 1940 c0 -5 7 -7 15 -4 8 4 15 8 15 10 0 2 -7 4 -15 4 -8 0 -15
-4 -15 -10z"/>
<path d="M2475 1941 c-3 -5 0 -13 6 -17 7 -4 9 -3 5 4 -3 5 0 13 6 15 9 4 10
6 1 6 -6 1 -14 -3 -18 -8z"/>
<path d="M2540 1921 c0 -11 4 -22 9 -25 4 -3 6 6 3 19 -5 30 -12 33 -12 6z"/>
<path d="M2478 1903 c7 -3 16 -2 19 1 4 3 -2 6 -13 5 -11 0 -14 -3 -6 -6z"/>
<path d="M1967 1879 c4 -13 8 -18 11 -10 2 7 -1 18 -6 23 -8 8 -9 4 -5 -13z"/>
<path d="M2136 1875 c4 -8 8 -15 10 -15 2 0 4 7 4 15 0 8 -4 15 -10 15 -5 0
-7 -7 -4 -15z"/>
<path d="M1640 1869 c0 -5 5 -7 10 -4 6 3 10 8 10 11 0 2 -4 4 -10 4 -5 0 -10
-5 -10 -11z"/>
<path d="M2490 1870 c-9 -6 -10 -10 -3 -10 6 0 15 5 18 10 8 12 4 12 -15 0z"/>
<path d="M527 1769 c7 -7 15 -10 18 -7 3 3 -2 9 -12 12 -14 6 -15 5 -6 -5z"/>
<path d="M358 1763 c7 -3 16 -2 19 1 4 3 -2 6 -13 5 -11 0 -14 -3 -6 -6z"/>
<path d="M480 1766 c0 -2 7 -6 15 -10 8 -3 15 -1 15 4 0 6 -7 10 -15 10 -8 0
-15 -2 -15 -4z"/>
<path d="M739 1753 c-13 -16 -12 -17 4 -4 9 7 17 15 17 17 0 8 -8 3 -21 -13z"/>
<path d="M1435 1760 c-3 -6 1 -7 9 -4 18 7 21 14 7 14 -6 0 -13 -4 -16 -10z"/>
<path d="M3408 1763 c6 -2 9 -10 6 -15 -4 -7 -2 -8 5 -4 6 4 23 0 36 -8 14 -9
25 -14 25 -11 0 8 -63 45 -75 44 -5 0 -4 -3 3 -6z"/>
<path d="M3624 1754 c-18 -14 -18 -14 6 -3 31 14 36 19 24 19 -6 0 -19 -7 -30
-16z"/>
<path d="M274 1738 l-19 -23 23 19 c21 18 27 26 19 26 -2 0 -12 -10 -23 -22z"/>
<path d="M570 1756 c0 -2 8 -10 18 -17 15 -13 16 -12 3 4 -13 16 -21 21 -21
13z"/>
<path d="M965 1750 c-3 -6 1 -7 9 -4 18 7 21 14 7 14 -6 0 -13 -4 -16 -10z"/>
<path d="M1010 1750 c0 -5 5 -10 10 -10 6 0 10 5 10 10 0 6 -4 10 -10 10 -5 0
-10 -4 -10 -10z"/>
<path d="M1461 1751 c-10 -7 -7 -9 12 -8 14 1 23 5 20 10 -6 9 -15 9 -32 -2z"/>
<path d="M2701 1744 c0 -11 3 -14 6 -6 3 7 2 16 -1 19 -3 4 -6 -2 -5 -13z"/>
<path d="M3894 1751 c3 -5 16 -11 28 -14 22 -6 22 -5 4 8 -22 17 -40 20 -32 6z"/>
<path d="M1653 1738 c-12 -15 -24 -48 -18 -48 2 0 10 14 19 30 15 32 15 38 -1
18z"/>
<path d="M2525 1385 c0 -192 1 -270 2 -172 2 98 2 256 0 350 -1 95 -3 15 -2
-178z"/>
<path d="M690 1705 c-7 -9 -11 -17 -8 -20 2 -2 12 4 21 15 9 11 13 20 8 20 -5
0 -14 -7 -21 -15z"/>
<path d="M1360 1701 c0 -6 4 -13 10 -16 6 -3 7 1 4 9 -7 18 -14 21 -14 7z"/>
<path d="M1850 1705 c0 -5 5 -17 10 -25 5 -8 10 -10 10 -5 0 6 -5 17 -10 25
-5 8 -10 11 -10 5z"/>
<path d="M1390 1690 c0 -5 5 -10 11 -10 5 0 7 5 4 10 -3 6 -8 10 -11 10 -2 0
-4 -4 -4 -10z"/>
<path d="M2291 1684 c0 -11 3 -14 6 -6 3 7 2 16 -1 19 -3 4 -6 -2 -5 -13z"/>
<path d="M2697 1682 c1 -8 3 -19 3 -25 0 -7 4 -6 10 3 12 19 13 33 1 26 -5 -4
-11 -3 -14 1 -2 5 -2 2 0 -5z"/>
<path d="M3320 1696 c0 -2 7 -9 15 -16 9 -7 15 -8 15 -2 0 5 -7 12 -15 16 -8
3 -15 4 -15 2z"/>
<path d="M2392 1655 c0 -16 2 -22 5 -12 2 9 2 23 0 30 -3 6 -5 -1 -5 -18z"/>
<path d="M3501 1664 c0 -11 3 -14 6 -6 3 7 2 16 -1 19 -3 4 -6 -2 -5 -13z"/>
<path d="M3705 1670 c-3 -5 -1 -10 4 -10 6 0 11 5 11 10 0 6 -2 10 -4 10 -3 0
-8 -4 -11 -10z"/>
<path d="M3964 1455 c0 -115 2 -161 3 -102 2 59 2 154 0 210 -1 56 -3 8 -3
-108z"/>
<path d="M473 1585 c0 -33 2 -45 4 -27 2 18 2 45 0 60 -2 15 -4 0 -4 -33z"/>
<path d="M1774 1390 c0 -124 2 -174 3 -112 2 61 2 163 0 225 -1 61 -3 11 -3
-113z"/>
<path d="M585 1559 c-11 -16 -1 -19 13 -3 7 8 8 14 3 14 -5 0 -13 -5 -16 -11z"/>
<path d="M1622 1515 c0 -16 2 -22 5 -12 2 9 2 23 0 30 -3 6 -5 -1 -5 -18z"/>
<path d="M1527 1523 c-4 -3 -7 -11 -7 -17 0 -6 5 -5 12 2 6 6 9 14 7 17 -3 3
-9 2 -12 -2z"/>
<path d="M3111 1504 c0 -11 3 -14 6 -6 3 7 2 16 -1 19 -3 4 -6 -2 -5 -13z"/>
<path d="M1285 1480 c-3 -6 1 -7 9 -4 18 7 21 14 7 14 -6 0 -13 -4 -16 -10z"/>
<path d="M2984 1384 c0 -21 3 -30 8 -22 10 16 10 45 1 51 -5 3 -8 -10 -9 -29z"/>
<path d="M3113 1330 c0 -47 2 -66 4 -42 2 23 2 61 0 85 -2 23 -4 4 -4 -43z"/>
<path d="M1510 1386 c0 -2 7 -9 15 -16 13 -11 14 -10 9 4 -5 14 -24 23 -24 12z"/>
<path d="M1623 1320 c0 -41 2 -58 4 -37 2 20 2 54 0 75 -2 20 -4 3 -4 -38z"/>
<path d="M1396 1345 c-3 -9 -6 -26 -5 -38 1 -14 4 -9 9 13 9 37 7 52 -4 25z"/>
<path d="M2992 1285 c0 -16 2 -22 5 -12 2 9 2 23 0 30 -3 6 -5 -1 -5 -18z"/>
<path d="M470 1203 c-3 -51 -1 -89 3 -84 4 4 7 46 5 92 l-3 84 -5 -92z"/>
<path d="M3113 1200 c0 -25 2 -35 4 -22 2 12 2 32 0 45 -2 12 -4 2 -4 -23z"/>
<path d="M1622 1210 c0 -14 2 -19 5 -12 2 6 2 18 0 25 -3 6 -5 1 -5 -13z"/>
<path d="M2621 1184 c0 -11 3 -14 6 -6 3 7 2 16 -1 19 -3 4 -6 -2 -5 -13z"/>
<path d="M1541 1174 c0 -11 3 -14 6 -6 3 7 2 16 -1 19 -3 4 -6 -2 -5 -13z"/>
<path d="M596 1155 c-9 -26 -7 -32 5 -12 6 10 9 21 6 23 -2 3 -7 -2 -11 -11z"/>
<path d="M1642 1150 c0 -14 2 -19 5 -12 2 6 2 18 0 25 -3 6 -5 1 -5 -13z"/>
<path d="M3580 1161 c0 -6 4 -13 10 -16 6 -3 7 1 4 9 -7 18 -14 21 -14 7z"/>
<path d="M945 1149 c-4 -6 -5 -12 -2 -15 2 -3 7 2 10 11 7 17 1 20 -8 4z"/>
<path d="M1055 1150 c-3 -5 -1 -10 4 -10 6 0 11 5 11 10 0 6 -2 10 -4 10 -3 0
-8 -4 -11 -10z"/>
<path d="M2601 1144 c0 -11 3 -14 6 -6 3 7 2 16 -1 19 -3 4 -6 -2 -5 -13z"/>
<path d="M2361 1134 c0 -11 3 -14 6 -6 3 7 2 16 -1 19 -3 4 -6 -2 -5 -13z"/>
<path d="M3941 1110 c-12 -22 -20 -40 -17 -40 7 0 49 71 44 75 -2 3 -15 -13
-27 -35z"/>
<path d="M3570 1126 c0 -8 4 -17 9 -20 5 -4 7 3 4 14 -6 23 -13 26 -13 6z"/>
<path d="M601 1113 c-7 -8 -11 -16 -8 -19 2 -2 10 2 17 11 17 20 9 27 -9 8z"/>
<path d="M680 1120 c0 -5 5 -10 11 -10 5 0 7 5 4 10 -3 6 -8 10 -11 10 -2 0
-4 -4 -4 -10z"/>
<path d="M1620 1121 c0 -6 4 -13 10 -16 6 -3 7 1 4 9 -7 18 -14 21 -14 7z"/>
<path d="M2331 1114 c0 -11 3 -14 6 -6 3 7 2 16 -1 19 -3 4 -6 -2 -5 -13z"/>
<path d="M3325 1120 c-3 -5 -1 -10 4 -10 6 0 11 5 11 10 0 6 -2 10 -4 10 -3 0
-8 -4 -11 -10z"/>
<path d="M3720 1121 c0 -5 7 -12 16 -15 14 -5 15 -4 4 9 -14 17 -20 19 -20 6z"/>
<path d="M895 1109 c-11 -16 -1 -19 13 -3 7 8 8 14 3 14 -5 0 -13 -5 -16 -11z"/>
<path d="M2350 1096 c0 -8 4 -17 9 -20 5 -4 7 3 4 14 -6 23 -13 26 -13 6z"/>
<path d="M707 1079 c7 -7 15 -10 18 -7 3 3 -2 9 -12 12 -14 6 -15 5 -6 -5z"/>
<path d="M3454 1074 c-18 -14 -18 -15 4 -4 12 6 22 13 22 15 0 8 -5 6 -26 -11z"/>
<path d="M1925 1070 c-16 -7 -17 -9 -3 -9 9 -1 20 4 23 9 7 11 7 11 -20 0z"/>
<path d="M2728 1073 c7 -3 16 -2 19 1 4 3 -2 6 -13 5 -11 0 -14 -3 -6 -6z"/>
<path d="M558 1063 c7 -3 16 -2 19 1 4 3 -2 6 -13 5 -11 0 -14 -3 -6 -6z"/>
<path d="M1407 1055 c-4 -8 -3 -16 1 -19 4 -3 9 4 9 15 2 23 -3 25 -10 4z"/>
<path d="M2945 1049 c-4 -6 -5 -12 -2 -15 2 -3 7 2 10 11 7 17 1 20 -8 4z"/>
<path d="M328 1043 c7 -3 16 -2 19 1 4 3 -2 6 -13 5 -11 0 -14 -3 -6 -6z"/>
<path d="M1718 1033 c7 -3 16 -2 19 1 4 3 -2 6 -13 5 -11 0 -14 -3 -6 -6z"/>
</g>
</svg>
